<?xml version="1.0" standalone="no"?>
<!DOCTYPE svg PUBLIC "-//W3C//DTD SVG 20010904//EN"
 "http://www.w3.org/TR/2001/REC-SVG-20010904/DTD/svg10.dtd">
<svg version="1.0" xmlns="http://www.w3.org/2000/svg"
 width="256.000000pt" height="256.000000pt" viewBox="0 0 256.000000 256.000000"
 preserveAspectRatio="xMidYMid meet">
<metadata>
Created by potrace 1.14, written by Peter Selinger 2001-2017
</metadata>
<g transform="translate(0.000000,256.000000) scale(0.100000,-0.100000)"
fill="#000000" stroke="none">
<path d="M960 2360 l0 -40 -40 0 -40 0 0 -160 0 -160 -240 0 -240 0 0 -40 0
-40 -40 0 -40 0 0 -120 0 -120 40 0 40 0 0 -40 0 -40 40 0 40 0 0 -597 c0
-329 0 -618 0 -643 l0 -45 800 2 c610 1 799 -1 793 -10 -4 -7 1 -6 10 2 18 14
23 26 7 16 -6 -4 -10 222 -10 635 l0 640 40 0 40 0 0 40 0 40 40 0 40 0 0 120
0 120 -40 0 -40 0 0 40 0 40 -240 0 -240 0 0 160 0 160 -40 0 -40 0 0 40 0 40
-120 0 -120 0 0 -40 0 -40 -80 0 -80 0 0 40 0 40 -120 0 -120 0 0 -40z m160
-80 l0 -40 40 0 40 0 0 -120 0 -120 -80 0 -80 0 0 40 0 40 -40 0 -40 0 0 80 0
80 40 0 40 0 0 40 0 40 40 0 40 0 0 -40z m400 0 l0 -40 40 0 40 0 0 -80 0 -80
-40 0 -40 0 0 -40 0 -40 -80 0 -80 0 0 120 0 120 40 0 40 0 0 40 0 40 40 0 40
0 0 -40z"/>
<path d="M2106 438 c3 -5 10 -6 15 -3 13 9 11 12 -6 12 -8 0 -12 -4 -9 -9z"/>
<path d="M436 362 c-3 -5 1 -9 9 -9 8 0 12 4 9 9 -3 4 -7 8 -9 8 -2 0 -6 -4
-9 -8z"/>
<path d="M436 282 c-3 -5 1 -9 9 -9 8 0 12 4 9 9 -3 4 -7 8 -9 8 -2 0 -6 -4
-9 -8z"/>
<path d="M993 275 c0 -8 4 -12 9 -9 5 3 6 10 3 15 -9 13 -12 11 -12 -6z"/>
<path d="M1306 278 c3 -5 10 -6 15 -3 13 9 11 12 -6 12 -8 0 -12 -4 -9 -9z"/>
<path d="M2035 281 c-3 -5 -2 -12 3 -15 5 -3 9 1 9 9 0 17 -3 19 -12 6z"/>
<path d="M2115 281 c-3 -5 -2 -12 3 -15 5 -3 9 1 9 9 0 17 -3 19 -12 6z"/>
<path d="M915 211 c-3 -5 -2 -12 3 -15 5 -3 9 1 9 9 0 17 -3 19 -12 6z"/>
<path d="M1875 211 c-3 -5 -2 -12 3 -15 5 -3 9 1 9 9 0 17 -3 19 -12 6z"/>
<path d="M755 201 c-3 -5 -2 -12 3 -15 5 -3 9 1 9 9 0 17 -3 19 -12 6z"/>
<path d="M1236 202 c-3 -5 1 -9 9 -9 8 0 12 4 9 9 -3 4 -7 8 -9 8 -2 0 -6 -4
-9 -8z"/>
<path d="M1546 198 c3 -5 10 -6 15 -3 13 9 11 12 -6 12 -8 0 -12 -4 -9 -9z"/>
<path d="M1715 201 c-3 -5 -2 -12 3 -15 5 -3 9 1 9 9 0 17 -3 19 -12 6z"/>
</g>
</svg>
